<?xml version="1.0" encoding="utf-8"?>
<!-- Generator: Adobe Illustrator 15.1.0, SVG Export Plug-In . SVG Version: 6.00 Build 0)  -->
<!DOCTYPE svg PUBLIC "-//W3C//DTD SVG 1.1//EN" "http://www.w3.org/Graphics/SVG/1.1/DTD/svg11.dtd">
<svg version="1.1" id="Layer_1" xmlns="http://www.w3.org/2000/svg" xmlns:xlink="http://www.w3.org/1999/xlink" x="0px" y="0px"
	 width="129px" height="129px" viewBox="-14.5 -14.5 129 129" enable-background="new -14.5 -14.5 129 129" xml:space="preserve">
<path d="M53.174,0H22.285c-2.337,0-4.231,1.894-4.231,4.231v91.396c0,2.338,1.895,4.23,4.231,4.23c0,0,3.458,0.998,7.331-4.228
	c3.978-5.366,15.518-23.698,15.518-23.698c1.378-1.887,2.541-3.871,4.806-3.871s3.626,1.871,4.926,3.871
	c0,0,11.417,17.743,15.519,23.698c3.836,5.569,7.33,4.228,7.33,4.228c2.337,0,4.23-1.894,4.23-4.23V4.231
	c0-2.337-1.893-4.231-4.23-4.231H46.827H53.174z"/>
</svg>
